{"title":"Miami Vice 2006 Unrated 720p BRRip H264 AAC-Rx(Phoenix-RG)","uid":5815158,"size":2203724115,"categoryP":"video","categoryS":"hd___movies","magnet":"?xt=urn:btih:90ae4df38fb2100b79ea60d566eb50a1dcab6bff&amp;dn=Miami+Vice+2006+Unrated+720p+BRRip+H264+AAC-Rx%28Phoenix-RG%29&amp;tr=udp%3A%2F%2Ftracker.openbittorrent.com%3A80&amp;tr=udp%3A%2F%2Fopen.demonii.com%3A1337&amp;tr=udp%3A%2F%2Ftracker.coppersurfer.tk%3A6969&amp;tr=udp%3A%2F%2Fexodus.desync.com%3A6969","seeders":0,"leechers":1,"uploader":"rev-x","files":9,"time":1283791493,"description":"Miami Vice 2006 Unrated 720p BRRip H264 AAC-Rx(Phoenix-RG).mp4\n      Format : MPEG-4 /AVC\n      File size : 2.05 GiB\n      Duration : 2h 19mn\n      Bit rate : 1 800 Kbps\n      Width : 1 280 pixels\n      Height : 536 pixels\n      Display aspect ratio : 2.35\n      Frame rate : 23.976 fps\n      Resolution : 24 bits\n      Colorimetry : 4:2:0\n      Scan type : Progressive\n      Bits/(Pixel*Frame) : 0.109\n      Stream size : 1.75 GiB (85%)\n      \n     \nAUDIO:\n      Format : AAC / LC\n      Duration : 2h 19mn\n      Bit rate : 309 Kbps\n      Channel(s) : 6 channels\n      Channel positions : Front: L C R, Rear: L R, LFE\n      Sampling rate : 48.0 KHz\n      Resolution : 16 bits\n      Stream size : 307 MiB (15%)\n\n\nSCREEN:\n &lt;a href=&quot;\nhttp://img801.imageshack.us/img801/3946/vlcsnap2010090608h02m02.jpg&quot; rel=&quot;nofollow&quot; target=&quot;_NEW&quot;&gt;\nhttp://img801.imageshack.us/img801/3946/vlcsnap2010090608h02m02.jpg&lt;/a&gt;\n &lt;a href=&quot;\nhttp://img808.imageshack.us/img808/2421/vlcsnap2010090608h02m28.jpg&quot; rel=&quot;nofollow&quot; target=&quot;_NEW&quot;&gt;\nhttp://img808.imageshack.us/img808/2421/vlcsnap2010090608h02m28.jpg&lt;/a&gt;\n &lt;a href=&quot;\nhttp://img809.imageshack.us/img809/8334/vlcsnap2010090608h07m26.jpg&quot; rel=&quot;nofollow&quot; target=&quot;_NEW&quot;&gt;\nhttp://img809.imageshack.us/img809/8334/vlcsnap2010090608h07m26.jpg&lt;/a&gt;\n\n","torrent":{"xt":"urn:btih:90ae4df38fb2100b79ea60d566eb50a1dcab6bff","amp;dn":"Miami+Vice+2006+Unrated+720p+BRRip+H264+AAC-Rx%28Phoenix-RG%29","amp;tr":["udp%3A%2F%2Ftracker.openbittorrent.com%3A80","udp%3A%2F%2Fopen.demonii.com%3A1337","udp%3A%2F%2Ftracker.coppersurfer.tk%3A6969","udp%3A%2F%2Fexodus.desync.com%3A6969"],"infoHash":"90ae4df38fb2100b79ea60d566eb50a1dcab6bff","infoHashBuffer":{"type":"Buffer","data":[144,174,77,243,143,178,16,11,121,234,96,213,102,235,80,161,220,171,107,255]},"announce":[],"urlList":[]}}